<svg width="252" height="28" viewBox="0 0 252 28" fill="none" xmlns="http://www.w3.org/2000/svg">
<path d="M-0.000390619 14.28C-0.000390619 12.2 0.319609 10.36 0.95961 8.76C1.62628 7.16 2.51961 5.82667 3.63961 4.76C4.78628 3.66667 6.11961 2.84 7.63961 2.28C9.18628 1.72 10.8529 1.44 12.6396 1.44C14.4263 1.44 16.0796 1.72 17.5996 2.28C19.1463 2.84 20.4929 3.66667 21.6396 4.76C22.7863 5.82667 23.6796 7.16 24.3196 8.76C24.9863 10.36 25.3196 12.2 25.3196 14.28C25.3196 16.36 24.9996 18.2133 24.3596 19.84C23.7196 21.44 22.8263 22.7867 21.6796 23.88C20.5596 24.9467 19.2263 25.76 17.6796 26.32C16.1329 26.88 14.4529 27.16 12.6396 27.16C10.8263 27.16 9.14628 26.88 7.59961 26.32C6.05294 25.7333 4.71961 24.8933 3.59961 23.8C2.47961 22.7067 1.59961 21.36 0.95961 19.76C0.319609 18.16 -0.000390619 16.3333 -0.000390619 14.28ZM7.19961 14.28C7.19961 16.7067 7.69294 18.52 8.67961 19.72C9.66628 20.92 10.9863 21.52 12.6396 21.52C14.3196 21.52 15.6529 20.92 16.6396 19.72C17.6263 18.52 18.1196 16.7067 18.1196 14.28C18.1196 11.88 17.6263 10.08 16.6396 8.88C15.6796 7.68 14.3596 7.08 12.6796 7.08C11.0263 7.08 9.69294 7.68 8.67961 8.88C7.69294 10.0533 7.19961 11.8533 7.19961 14.28ZM28.8046 7.28C29.0713 7.2 29.4846 7.12 30.0446 7.04C30.6313 6.96 31.2313 6.92 31.8446 6.92C32.4313 6.92 32.9513 6.96 33.4046 7.04C33.8846 7.12 34.2846 7.28 34.6046 7.52C34.9246 7.76 35.1646 8.09334 35.3246 8.52C35.5113 8.92 35.6046 9.45333 35.6046 10.12V18.72C35.6046 19.8133 35.8713 20.6 36.4046 21.08C36.9379 21.5333 37.7113 21.76 38.7246 21.76C39.3379 21.76 39.8313 21.7067 40.2046 21.6C40.6046 21.4933 40.9113 21.3867 41.1246 21.28V7.28C41.3913 7.2 41.8046 7.12 42.3646 7.04C42.9513 6.96 43.5513 6.92 44.1646 6.92C44.7513 6.92 45.2713 6.96 45.7246 7.04C46.2046 7.12 46.6046 7.28 46.9246 7.52C47.2446 7.76 47.4846 8.09334 47.6446 8.52C47.8313 8.92 47.9246 9.45333 47.9246 10.12V22.28C47.9246 23.6133 47.3646 24.6133 46.2446 25.28C45.3113 25.8667 44.1913 26.3067 42.8846 26.6C41.6046 26.92 40.2046 27.08 38.6846 27.08C37.2446 27.08 35.9113 26.92 34.6846 26.6C33.4846 26.28 32.4446 25.7867 31.5646 25.12C30.6846 24.4533 30.0046 23.6 29.5246 22.56C29.0446 21.4933 28.8046 20.2133 28.8046 18.72V7.28ZM58.8859 26.4C58.6192 26.48 58.1925 26.56 57.6059 26.64C57.0459 26.72 56.4592 26.76 55.8459 26.76C55.2592 26.76 54.7259 26.72 54.2459 26.64C53.7925 26.56 53.4059 26.4 53.0859 26.16C52.7659 25.92 52.5125 25.6 52.3259 25.2C52.1659 24.7733 52.0859 24.2267 52.0859 23.56V11.56C52.0859 10.9467 52.1925 10.4267 52.4059 10C52.6459 9.54667 52.9792 9.14667 53.4059 8.8C53.8325 8.45333 54.3525 8.14667 54.9659 7.88C55.6059 7.58667 56.2859 7.33334 57.0059 7.12C57.7259 6.90667 58.4725 6.74667 59.2459 6.64C60.0192 6.50667 60.7925 6.44 61.5659 6.44C62.8459 6.44 63.8592 6.69334 64.6059 7.2C65.3525 7.68 65.7259 8.48 65.7259 9.6C65.7259 9.97334 65.6725 10.3467 65.5659 10.72C65.4592 11.0667 65.3259 11.3867 65.1659 11.68C64.6059 11.68 64.0325 11.7067 63.4459 11.76C62.8592 11.8133 62.2859 11.8933 61.7259 12C61.1659 12.1067 60.6325 12.2267 60.1259 12.36C59.6459 12.4667 59.2325 12.6 58.8859 12.76V26.4ZM84.859 22.12C85.3123 22.12 85.8057 22.08 86.339 22C86.899 21.8933 87.3123 21.76 87.579 21.6V18.4L84.699 18.64C83.9523 18.6933 83.339 18.8533 82.859 19.12C82.379 19.3867 82.139 19.7867 82.139 20.32C82.139 20.8533 82.339 21.2933 82.739 21.64C83.1657 21.96 83.8723 22.12 84.859 22.12ZM84.539 6.4C85.979 6.4 87.2857 6.54667 88.459 6.84C89.659 7.13333 90.6723 7.58667 91.499 8.2C92.3523 8.78667 93.0057 9.54667 93.459 10.48C93.9123 11.3867 94.139 12.4667 94.139 13.72V22.68C94.139 23.3733 93.939 23.9467 93.539 24.4C93.1657 24.8267 92.7123 25.2 92.179 25.52C90.4457 26.56 88.0057 27.08 84.859 27.08C83.4457 27.08 82.1657 26.9467 81.019 26.68C79.899 26.4133 78.9257 26.0133 78.099 25.48C77.299 24.9467 76.6723 24.2667 76.219 23.44C75.7923 22.6133 75.579 21.6533 75.579 20.56C75.579 18.72 76.1257 17.3067 77.219 16.32C78.3123 15.3333 80.0057 14.72 82.299 14.48L87.539 13.92V13.64C87.539 12.8667 87.1923 12.32 86.499 12C85.8323 11.6533 84.859 11.48 83.579 11.48C82.5657 11.48 81.579 11.5867 80.619 11.8C79.659 12.0133 78.7923 12.28 78.019 12.6C77.6723 12.36 77.379 12 77.139 11.52C76.899 11.0133 76.779 10.4933 76.779 9.96C76.779 9.26667 76.939 8.72 77.259 8.32C77.6057 7.89334 78.1257 7.53334 78.819 7.24C79.5923 6.94667 80.499 6.73333 81.539 6.6C82.6057 6.46667 83.6057 6.4 84.539 6.4ZM105.097 26.4C104.83 26.48 104.403 26.56 103.817 26.64C103.257 26.72 102.67 26.76 102.057 26.76C101.47 26.76 100.937 26.72 100.457 26.64C100.003 26.56 99.6168 26.4 99.2968 26.16C98.9768 25.92 98.7235 25.6 98.5368 25.2C98.3768 24.7733 98.2968 24.2267 98.2968 23.56V11.56C98.2968 10.9467 98.4035 10.4267 98.6168 10C98.8568 9.54667 99.1901 9.14667 99.6168 8.8C100.043 8.45333 100.563 8.14667 101.177 7.88C101.817 7.58667 102.497 7.33334 103.217 7.12C103.937 6.90667 104.683 6.74667 105.457 6.64C106.23 6.50667 107.003 6.44 107.777 6.44C109.057 6.44 110.07 6.69334 110.817 7.2C111.563 7.68 111.937 8.48 111.937 9.6C111.937 9.97334 111.883 10.3467 111.777 10.72C111.67 11.0667 111.537 11.3867 111.377 11.68C110.817 11.68 110.243 11.7067 109.657 11.76C109.07 11.8133 108.497 11.8933 107.937 12C107.377 12.1067 106.843 12.2267 106.337 12.36C105.857 12.4667 105.443 12.6 105.097 12.76V26.4ZM121.542 19.76C121.542 20.4533 121.755 20.9467 122.182 21.24C122.635 21.5333 123.262 21.68 124.062 21.68C124.462 21.68 124.875 21.6533 125.302 21.6C125.729 21.52 126.102 21.4267 126.422 21.32C126.662 21.6133 126.862 21.9467 127.022 22.32C127.209 22.6667 127.302 23.0933 127.302 23.6C127.302 24.6133 126.915 25.44 126.142 26.08C125.395 26.72 124.062 27.04 122.142 27.04C119.795 27.04 117.982 26.5067 116.702 25.44C115.449 24.3733 114.822 22.64 114.822 20.24V3.12C115.115 3.04 115.529 2.96 116.062 2.88C116.622 2.77333 117.209 2.72 117.822 2.72C118.995 2.72 119.902 2.93333 120.542 3.36C121.209 3.76 121.542 4.62667 121.542 5.96V8.52H126.782C126.942 8.81334 127.089 9.18667 127.222 9.64C127.382 10.0667 127.462 10.5467 127.462 11.08C127.462 12.0133 127.249 12.6933 126.822 13.12C126.422 13.52 125.875 13.72 125.182 13.72H121.542V19.76ZM141.838 25.84C141.464 26.16 140.958 26.4133 140.318 26.6C139.678 26.8133 138.918 26.92 138.038 26.92C136.944 26.92 135.998 26.76 135.198 26.44C134.398 26.1467 133.864 25.72 133.598 25.16C133.304 24.52 132.958 23.5067 132.558 22.12C132.184 20.7333 131.811 19.2133 131.438 17.56C131.064 15.9067 130.704 14.2267 130.358 12.52C130.038 10.8133 129.784 9.30667 129.598 8C129.971 7.62667 130.464 7.30667 131.078 7.04C131.718 6.74667 132.411 6.6 133.158 6.6C134.091 6.6 134.851 6.81333 135.438 7.24C136.051 7.64 136.424 8.34667 136.558 9.36C136.824 11.3867 137.051 13.0667 137.238 14.4C137.424 15.7067 137.571 16.7867 137.678 17.64C137.811 18.4667 137.904 19.1067 137.958 19.56C138.038 19.9867 138.104 20.3333 138.158 20.6H138.318C138.398 20.1733 138.531 19.56 138.718 18.76C138.931 17.9333 139.171 17 139.438 15.96C139.704 14.92 139.984 13.8 140.278 12.6C140.571 11.3733 140.864 10.16 141.158 8.96C141.691 8.66667 142.211 8.44 142.718 8.28C143.251 8.12 143.904 8.04 144.678 8.04C145.611 8.04 146.411 8.18667 147.078 8.48C147.744 8.77333 148.171 9.22667 148.358 9.84C148.678 11.0133 148.984 12.16 149.278 13.28C149.571 14.3733 149.838 15.4 150.078 16.36C150.318 17.2933 150.531 18.1333 150.718 18.88C150.904 19.6 151.038 20.1733 151.118 20.6H151.318C151.611 18.5467 151.891 16.4133 152.158 14.2C152.451 11.9867 152.718 9.73333 152.958 7.44C153.438 7.14667 153.944 6.93333 154.478 6.8C155.011 6.66667 155.544 6.6 156.078 6.6C157.011 6.6 157.784 6.8 158.398 7.2C159.011 7.6 159.318 8.29333 159.318 9.28C159.318 9.70667 159.251 10.3467 159.118 11.2C158.984 12.0533 158.811 13.0133 158.598 14.08C158.384 15.1467 158.131 16.2667 157.838 17.44C157.571 18.6133 157.291 19.7467 156.998 20.84C156.731 21.9333 156.464 22.92 156.198 23.8C155.958 24.68 155.744 25.36 155.558 25.84C155.184 26.16 154.611 26.4133 153.838 26.6C153.064 26.8133 152.238 26.92 151.358 26.92C149.118 26.92 147.798 26.36 147.398 25.24C147.238 24.76 147.038 24.16 146.798 23.44C146.558 22.6933 146.304 21.88 146.038 21C145.771 20.12 145.518 19.2133 145.278 18.28C145.038 17.32 144.838 16.4 144.678 15.52C144.491 16.4533 144.264 17.4267 143.998 18.44C143.731 19.4267 143.451 20.4 143.158 21.36C142.891 22.2933 142.638 23.16 142.398 23.96C142.158 24.7333 141.971 25.36 141.838 25.84ZM182.518 16.72C182.518 18.3733 182.265 19.8533 181.758 21.16C181.252 22.44 180.532 23.52 179.598 24.4C178.692 25.28 177.598 25.9467 176.318 26.4C175.038 26.8533 173.612 27.08 172.038 27.08C170.465 27.08 169.038 26.84 167.758 26.36C166.478 25.88 165.372 25.2 164.438 24.32C163.532 23.4133 162.825 22.32 162.318 21.04C161.812 19.76 161.558 18.32 161.558 16.72C161.558 15.1467 161.812 13.72 162.318 12.44C162.825 11.16 163.532 10.08 164.438 9.2C165.372 8.29333 166.478 7.6 167.758 7.12C169.038 6.64 170.465 6.4 172.038 6.4C173.612 6.4 175.038 6.65333 176.318 7.16C177.598 7.64 178.692 8.33334 179.598 9.24C180.532 10.12 181.252 11.2 181.758 12.48C182.265 13.76 182.518 15.1733 182.518 16.72ZM168.518 16.72C168.518 18.3467 168.825 19.6 169.438 20.48C170.078 21.3333 170.958 21.76 172.078 21.76C173.198 21.76 174.052 21.32 174.638 20.44C175.252 19.56 175.558 18.32 175.558 16.72C175.558 15.12 175.252 13.8933 174.638 13.04C174.025 12.16 173.158 11.72 172.038 11.72C170.918 11.72 170.052 12.16 169.438 13.04C168.825 13.8933 168.518 15.12 168.518 16.72ZM192.636 26.4C192.369 26.48 191.943 26.56 191.356 26.64C190.796 26.72 190.209 26.76 189.596 26.76C189.009 26.76 188.476 26.72 187.996 26.64C187.543 26.56 187.156 26.4 186.836 26.16C186.516 25.92 186.263 25.6 186.076 25.2C185.916 24.7733 185.836 24.2267 185.836 23.56V11.56C185.836 10.9467 185.943 10.4267 186.156 10C186.396 9.54667 186.729 9.14667 187.156 8.8C187.583 8.45333 188.103 8.14667 188.716 7.88C189.356 7.58667 190.036 7.33334 190.756 7.12C191.476 6.90667 192.223 6.74667 192.996 6.64C193.769 6.50667 194.543 6.44 195.316 6.44C196.596 6.44 197.609 6.69334 198.356 7.2C199.103 7.68 199.476 8.48 199.476 9.6C199.476 9.97334 199.423 10.3467 199.316 10.72C199.209 11.0667 199.076 11.3867 198.916 11.68C198.356 11.68 197.783 11.7067 197.196 11.76C196.609 11.8133 196.036 11.8933 195.476 12C194.916 12.1067 194.383 12.2267 193.876 12.36C193.396 12.4667 192.983 12.6 192.636 12.76V26.4ZM221.281 22.92C221.148 24.1733 220.775 25.1333 220.161 25.8C219.575 26.4667 218.708 26.8 217.561 26.8C216.708 26.8 215.948 26.6 215.281 26.2C214.615 25.7733 213.895 25.0667 213.121 24.08L209.161 19.12V26.4C208.868 26.4533 208.428 26.52 207.841 26.6C207.281 26.7067 206.708 26.76 206.121 26.76C205.535 26.76 205.001 26.72 204.521 26.64C204.068 26.56 203.681 26.4 203.361 26.16C203.041 25.92 202.788 25.6 202.601 25.2C202.441 24.7733 202.361 24.2267 202.361 23.56V0.400002C202.655 0.320001 203.081 0.240001 203.641 0.160002C204.228 0.0533353 204.815 1.90735e-06 205.401 1.90735e-06C205.988 1.90735e-06 206.508 0.0400014 206.961 0.12C207.441 0.200001 207.841 0.360001 208.161 0.600001C208.481 0.840001 208.721 1.17333 208.881 1.6C209.068 2 209.161 2.53334 209.161 3.2V13.76L216.041 6.72C217.428 6.72 218.535 7.02667 219.361 7.64C220.215 8.25333 220.641 9.02667 220.641 9.96C220.641 10.36 220.575 10.7333 220.441 11.08C220.308 11.4 220.095 11.7333 219.801 12.08C219.535 12.4267 219.175 12.8 218.721 13.2C218.295 13.5733 217.788 14.0133 217.201 14.52L214.881 16.52L221.281 22.92ZM240.4 20.64C240.4 22.6667 239.64 24.2533 238.12 25.4C236.6 26.5467 234.36 27.12 231.4 27.12C230.28 27.12 229.24 27.04 228.28 26.88C227.32 26.72 226.493 26.48 225.8 26.16C225.133 25.8133 224.6 25.3867 224.2 24.88C223.827 24.3733 223.64 23.7733 223.64 23.08C223.64 22.44 223.773 21.9067 224.04 21.48C224.307 21.0267 224.627 20.6533 225 20.36C225.773 20.7867 226.653 21.1733 227.64 21.52C228.653 21.84 229.813 22 231.12 22C231.947 22 232.573 21.88 233 21.64C233.453 21.4 233.68 21.08 233.68 20.68C233.68 20.3067 233.52 20.0133 233.2 19.8C232.88 19.5867 232.347 19.4133 231.6 19.28L230.4 19.04C228.08 18.5867 226.347 17.88 225.2 16.92C224.08 15.9333 223.52 14.5333 223.52 12.72C223.52 11.7333 223.733 10.84 224.16 10.04C224.587 9.24 225.187 8.57333 225.96 8.04C226.733 7.50667 227.653 7.09333 228.72 6.8C229.813 6.50667 231.013 6.36 232.32 6.36C233.307 6.36 234.227 6.44 235.08 6.6C235.96 6.73333 236.72 6.94667 237.36 7.24C238 7.53334 238.507 7.92 238.88 8.4C239.253 8.85333 239.44 9.4 239.44 10.04C239.44 10.6533 239.32 11.1867 239.08 11.64C238.867 12.0667 238.587 12.4267 238.24 12.72C238.027 12.5867 237.707 12.4533 237.28 12.32C236.853 12.16 236.387 12.0267 235.88 11.92C235.373 11.7867 234.853 11.68 234.32 11.6C233.813 11.52 233.347 11.48 232.92 11.48C232.04 11.48 231.36 11.5867 230.88 11.8C230.4 11.9867 230.16 12.2933 230.16 12.72C230.16 13.0133 230.293 13.2533 230.56 13.44C230.827 13.6267 231.333 13.8 232.08 13.96L233.32 14.24C235.88 14.8267 237.693 15.64 238.76 16.68C239.853 17.6933 240.4 19.0133 240.4 20.64ZM251.087 3.24C251.087 3.85333 251.074 4.74667 251.047 5.92C251.021 7.06667 250.967 8.32 250.887 9.68C250.807 11.0133 250.701 12.36 250.567 13.72C250.434 15.0533 250.274 16.2133 250.087 17.2C249.981 17.28 249.821 17.36 249.607 17.44C249.394 17.52 249.167 17.5867 248.927 17.64C248.687 17.6933 248.447 17.7333 248.207 17.76C247.967 17.7867 247.754 17.8 247.567 17.8C246.794 17.8 246.141 17.68 245.607 17.44C245.101 17.2 244.781 16.7333 244.647 16.04C244.514 15.4267 244.394 14.4933 244.287 13.24C244.207 11.9867 244.127 10.6267 244.047 9.16C243.967 7.69334 243.901 6.24 243.847 4.8C243.821 3.36 243.807 2.13333 243.807 1.12C244.341 0.826667 244.941 0.600001 245.607 0.440001C246.301 0.253335 246.981 0.160002 247.647 0.160002C248.741 0.160002 249.581 0.413335 250.167 0.920002C250.781 1.42667 251.087 2.2 251.087 3.24ZM243.727 23.4C243.727 22.3067 244.061 21.4133 244.727 20.72C245.421 20 246.367 19.64 247.567 19.64C248.767 19.64 249.701 20 250.367 20.72C251.061 21.4133 251.407 22.3067 251.407 23.4C251.407 24.4933 251.061 25.4 250.367 26.12C249.701 26.8133 248.767 27.16 247.567 27.16C246.367 27.16 245.421 26.8133 244.727 26.12C244.061 25.4 243.727 24.4933 243.727 23.4Z" fill="#FF7700"/>
</svg>
