<svg width="257" height="66" viewBox="0 0 257 66" fill="none" xmlns="http://www.w3.org/2000/svg">
<path d="M97.575 7.35208C95.0482 7.28575 91.5103 7.18393 88.8273 7.07771C87.9748 7.04538 88.4016 6.8256 87.8214 6.79481C86.6738 6.73617 85.6114 6.86848 84.4777 6.8048C84.101 6.78281 84.5595 6.4326 84.1627 6.41739C83.5781 6.39692 83.0529 6.39163 82.4782 6.39794C80.9164 6.41372 79.3808 6.50771 77.7556 6.52566C66.9319 6.65648 56.2836 7.20289 45.3726 8.06069C41.7761 8.34598 37.3832 8.50413 33.714 9.11818C33.2875 9.18984 33.5814 9.4488 33.5031 9.48353C32.2803 10.021 32.6141 9.37643 31.7742 9.41236C30.7089 9.46089 29.6011 9.55337 28.5152 9.68009C26.1357 9.95905 23.7786 10.4153 21.6797 10.9878C20.3894 11.3485 21.8247 11.5995 20.4466 11.6052C20.3517 11.6066 20.5986 11.22 20.2392 11.2779C19.4009 11.4107 17.9037 11.9064 17.2937 12.0869C16.1145 12.4299 15.9188 12.5039 14.855 12.931C13.4105 13.5168 11.6956 14.2385 10.4947 15.2882C10.2402 15.5134 10.7816 15.4848 10.4136 15.86C10.0341 16.2235 9.07231 17.1869 8.73251 17.5259C8.38266 17.8506 8.30482 17.5432 8.20695 17.5751C7.88206 17.6836 7.61377 18.0433 7.42106 18.4529C7.124 19.0756 7.02218 19.7879 6.97035 19.9078C5.40089 23.5151 4.38455 26.9548 5.1 30.5248C5.11366 30.5875 5.12789 30.6501 5.1427 30.7125C5.70647 33.3234 7.60406 35.4363 9.73534 37.0458C11.6055 38.4779 13.4908 39.6089 15.5376 40.6573C16.3153 41.0526 17.1207 41.4311 17.972 41.7954C18.2981 41.9348 18.0677 41.4229 18.4671 41.5919C22.6907 43.3652 27.024 44.9129 31.3621 46.5373C31.7957 46.6994 31.1278 46.8386 31.5564 47.0196C34.1834 48.1315 38.3737 49.9829 40.3814 49.0159C42.2262 49.5668 44.4808 50.1962 46.0911 50.8841C47.1266 51.3256 45.9963 51.4249 47.3528 51.5926C47.3557 51.593 47.3587 51.5933 47.3617 51.5937C47.6692 51.6312 47.3524 51.2316 47.808 51.3108C49.7282 51.6449 51.7801 52.2087 53.6967 52.4418C54.0895 52.4891 54.0394 52.1892 54.1583 52.1618C55.1475 51.9466 56.5331 52.9162 56.8561 53.0281C59.3097 53.8775 61.1933 54.0602 63.5605 54.4545C64.1143 54.546 63.5219 54.0655 64.0531 54.1391C66.7934 54.5226 69.6432 54.9591 72.3243 55.4707C72.9137 55.5844 72.3261 55.8364 72.6063 55.9072C73.8534 56.2151 74.2103 55.6418 75.4108 55.9171C75.6661 55.9743 75.4882 56.2327 75.5319 56.2685C76.2178 56.8304 76.9181 56.2273 77.1123 56.234C79.5131 56.2965 80.9853 57.159 83.2953 57.2821C83.5749 57.2962 82.98 56.8867 83.7651 56.9474C88.9342 57.3432 94.4425 57.866 99.5454 58.487C100.342 58.5832 99.7539 58.8084 99.802 58.8441C100.59 59.4054 101.18 58.7613 101.433 58.7518C103.431 58.7011 105.256 59.3404 106.705 58.7204C106.751 58.7001 106.796 58.6785 106.841 58.6554C115.536 59.4359 124.25 59.3594 132.888 60.3914C132.997 60.4037 132.789 60.7317 133.007 60.7547C135.642 61.0345 135.165 60.4963 136.928 59.917C137.373 59.7716 138.692 60.5829 138.81 60.6428C139.238 60.864 138.772 61.3483 138.916 61.3931C140.107 61.7459 139.958 60.092 141.575 60.1395C141.626 60.1437 141.404 60.4408 141.539 60.475C141.959 60.5821 142.381 60.4737 142.792 60.59C143.727 60.8584 144.041 61.669 145.498 61.2418C145.682 61.1861 145.43 60.2442 146.871 60.3261C147.444 60.3599 149.996 60.4071 150.707 60.4837C151.418 60.5609 150.922 60.8508 150.972 60.865C152.885 61.3076 152.153 61.4559 153.104 62.0672C154.055 62.6758 153.817 61.2682 154.213 61.1201C154.61 60.9726 156.012 61.33 156.357 61.451C156.701 61.5721 156.265 61.7551 156.572 61.8259C158.606 62.2878 157.481 61.1472 158.158 60.9374C159.753 60.4398 160.969 61.5002 162.42 61.6248C162.813 61.6583 162.496 61.4166 162.846 61.3998C164.229 61.3361 165.064 61.6725 166.641 61.395C166.899 61.3498 168.18 60.7402 169.001 61.2077C169.117 61.2751 168.782 61.5306 169.373 61.5949C170.253 61.6915 171.841 61.7629 172.792 61.6836C173.492 61.6249 172.694 61.1919 173.573 61.3311C173.963 61.3932 173.237 61.6377 173.971 61.7334C174.694 61.8292 176.58 61.8288 177.286 61.8228C177.994 61.8169 177.608 61.4914 177.665 61.4699C178.007 61.3464 179.383 61.1944 179.501 61.1948C185.572 61.1684 191.193 61.6846 197.099 61.4065C197.559 61.385 197.247 61.0487 197.317 61.0419C198.905 60.8708 197.667 61.8012 198.789 62.0843C198.614 61.3944 199.279 61.508 200.385 61.4083C200.917 61.3595 200.621 61.0975 200.669 61.069C201.47 60.6437 202.038 61.1563 202.185 61.2605C202.725 61.6436 203.282 61.1608 203.645 61.4159C204.018 61.6687 203.188 62.0813 204.276 62.0463C204.572 61.7898 203.751 61.1644 204.569 61.0362C206.427 60.7402 209.347 60.7393 211.842 60.75C213.466 60.7556 214.881 60.769 215.848 60.7342C218.308 60.6436 219.093 60.5387 220.538 60.5222C223.136 60.4811 222.146 60.0761 223.726 59.716C225.315 59.3461 224.642 60.5968 224.899 60.8283C225.151 61.0592 225.359 60.7756 225.667 60.8845C225.969 60.9941 225.365 61.2302 226.045 61.2127C226.716 61.1988 228.489 60.5376 228.679 60.243C229.099 59.6212 228.212 59.1433 229.984 59.1189C230.085 59.1176 229.805 59.4698 230.188 59.4493C233.251 59.2697 236.411 58.734 239.414 58.1289C239.83 58.0442 239.558 58.4792 239.801 58.433C242.33 57.909 241.29 57.6034 242.363 56.5353C242.367 57.44 243.305 57.7288 245.115 56.87C246.189 56.3294 245.831 56.0801 246.344 55.4728C246.498 55.2927 247.331 55.0522 247.348 54.8167C247.39 54.051 246.456 54.0233 248.04 53.0268C248.11 52.9801 248.123 53.3948 248.352 53.2146C249.396 52.3602 249.494 51.7619 249.888 50.9327C250.041 50.599 250.233 50.2227 250.513 49.7389C251.323 48.4404 252.723 45.9953 253.053 44.1977C254.016 44.4283 254.053 42.5683 253.372 41.8643C253.436 40.6901 253.286 39.429 253.145 38.2994C253.095 37.9097 253.422 38.1013 253.442 38.0468C253.738 37.1738 252.945 36.8327 252.845 36.607C252.46 35.7066 252.099 34.8775 251.694 34.0901C250.953 32.6496 250.029 31.3291 248.568 30.3776C248.484 30.3247 247.932 30.7175 247.73 29.8923C247.715 29.8363 248.588 30.175 247.646 29.3462C246.714 28.5182 244.898 26.8581 243.181 26.2796C242.769 26.133 241.564 26.1075 240.979 25.3427C240.901 25.2389 241.101 25.1226 240.997 24.951C240.654 24.4005 240.094 24.8868 239.759 24.0922C239.417 23.2949 238.359 22.3348 236.514 22.0063C236.455 21.9947 235.861 22.3332 235.329 22.1103C234.501 21.7612 233.318 21.1827 232.437 20.8569C232.008 20.6979 232.165 21.1148 232.088 21.0927C231.152 20.8071 230.318 20.5147 229.502 20.2035C227.792 19.5524 226.222 18.8349 224.139 18.0481C223.579 17.8353 221.79 17.7283 220.799 17.0309C219.698 16.2634 221.461 15.0933 218.529 14.5785C217.342 14.3703 215.3 15.921 213.578 14.268C209.548 13.3272 206.034 11.7273 201.942 10.9726C201.758 10.9383 201.033 11.3401 200.616 11.2153C199.992 11.0279 199.721 10.67 199.28 10.5292C197.428 9.93133 195.649 9.68882 193.848 9.16952C193.166 8.9737 193.48 8.76576 192.661 8.53189C191.848 8.30073 191.202 8.51363 190.137 8.05107C189.33 7.70009 188.679 6.74886 187.581 6.3782C187.354 7.09204 186.588 6.87986 185.181 6.73221C184.908 6.70359 185.129 7.02682 184.996 7.02617C184.558 7.02845 184.205 6.81869 183.821 6.75082C183.725 6.73368 183.627 6.72485 183.526 6.72937C183.4 6.73459 183.334 6.98128 183.228 6.99974C182.339 7.16873 181.131 6.28925 180.921 6.13719C180.137 5.56142 179.638 5.78657 178.997 5.48528C178.352 5.18389 179.407 5.2338 178.637 4.96442C177.045 4.40746 174.918 3.98636 173.242 3.63575C172.575 3.49775 172.964 3.92398 172.867 3.91196C171.476 3.71929 170.132 3.09981 169.247 3.63135C168.595 1.73397 168.379 3.64275 166.462 2.97358C166.309 2.92036 166.241 2.06821 166.863 2.04516C167.492 2.02339 168.357 2.43215 169.226 2.39438C169.434 2.38511 170.709 1.82778 170.871 1.81136C172.156 1.67926 172.093 2.93485 172.141 3.01292C172.729 3.8764 174.254 3.33399 174.638 3.3565C176.346 3.44404 177.717 3.9282 179.139 4.05952C180.076 4.14955 180.34 3.37702 181.049 3.56903C182.529 3.97134 183.273 4.63404 184.257 4.97408C184.82 5.17064 185.479 5.25854 186.382 5.10904C186.91 5.02609 186.654 4.04347 188.184 5.15309C188.278 5.22214 189.386 6.1654 190.205 5.961C190.309 5.93535 190.371 5.68405 190.497 5.69435C191.348 5.77019 191.824 6.10808 192.73 6.24515C193.632 6.3811 194.727 6.52055 195.706 6.87537C196.293 7.08799 196.945 7.76471 197.199 7.95652C197.925 8.50665 198.942 8.20803 199.339 8.74486C199.736 9.2844 198.579 9.6162 199.834 10.2415C200.063 9.60716 200.361 8.97354 200.622 8.34404C203.539 9.18011 206.344 10.2068 209.272 11.035C209.635 11.1371 209.367 10.6814 209.759 10.7821C211.413 11.2093 212.766 11.8824 214.491 12.2989C215.825 12.6199 217.376 12.6971 218.775 13.035C219.378 14.0295 221.491 14.4254 222.94 14.973C223.448 15.1644 223.349 15.3485 223.692 15.5316C225.001 16.2244 224.564 15.3645 224.976 15.3884C226.751 15.5001 226.396 17.0026 228.314 17.6255C228.412 17.6571 229.923 17.3181 230.109 17.3311C230.295 17.3418 230.423 17.3573 230.512 17.3768C231.001 17.4869 230.292 17.7089 230.849 17.9634C232.038 18.5109 232.833 19.0111 234.357 19.3384C234.801 19.4321 235.996 19.3494 236.669 20.0506C236.757 20.1422 236.595 20.3693 236.675 20.419C238.127 21.3025 238.5 20.5426 239.505 20.6651C240.519 20.7909 241.654 21.9755 241.849 22.2622C242.376 23.0069 241.218 22.1641 241.155 22.1854C240.475 22.4323 241.499 22.8115 242.233 23.2292C241.964 24.0256 243.017 24.5137 242.987 23.6606C242.983 23.5661 242.362 23.3354 242.233 23.2292C243.251 22.8221 244.497 23.3438 245.355 24.7445C245.741 25.4051 245.001 25.4014 246.782 26.3854C247.586 26.8555 247.622 26.1768 248.394 26.5488C250.181 27.4145 251.735 29.6211 252.958 31.2786C253.41 31.8872 253.256 31.0971 253.574 31.5163C253.854 31.8929 254.078 32.284 254.275 32.6812C254.667 33.4768 254.951 34.2854 255.346 35.1326C255.4 35.2492 255.605 34.84 255.757 35.2565C256.874 38.438 256.899 41.4603 256.307 44.8374C256.06 46.4797 255.222 49.3824 254.296 50.8653C253.862 51.6101 253.321 52.3559 252.715 53.0572C251.226 54.8277 249.2 56.2519 247.734 57.239C246.378 58.1401 246.83 58.2283 246.311 58.7577C245.27 59.7978 242.766 59.8877 242.47 59.8472C242.459 59.8522 243.697 59.3211 242.96 59.4089C242.459 59.2144 242.485 59.8399 242.47 59.8472C242.236 59.8675 239.707 60.5465 239.219 60.7151C238.956 60.8177 239.185 61.0818 239.044 61.1296C235.705 62.2497 232.268 62.8659 228.825 63.1424C228.764 63.1434 228.812 62.7856 228.67 62.7923C226.65 62.8776 225.459 63.4242 223.819 63.8289C222.223 64.2271 220.902 64.2412 219.891 63.7125C218.664 63.8774 216.863 63.724 215.86 63.6185C214.836 63.5147 214.719 64.2006 214.63 64.219C213.668 64.4219 212.832 64.5115 212.012 64.5463C210.578 64.6063 209.211 64.4847 207.351 64.5088C205.97 64.5272 203.255 64.7031 201.775 64.8109C200.583 64.8987 199.899 64.7535 198.812 64.8764C198.665 64.8928 198.82 65.1928 198.775 65.2053C197.566 65.5902 198.136 64.8389 197.882 64.7113C196.973 64.2462 196.426 63.9998 194.871 64.2478C194.508 64.3047 193.502 65.3838 192.848 65.4533C192.002 65.5416 192.319 65.1562 191.428 65.2576C191.352 65.2658 191.371 65.5015 190.829 65.496C188.301 65.4735 185.519 65.349 182.904 65.3744C182.544 65.3769 183.006 65.7506 182.485 65.7603C180.045 65.8057 177.379 65.7835 175.002 65.5937C174.415 65.5458 174.785 65.2863 174.658 65.2078C173.886 64.7326 172.779 65.4075 172.596 65.419C168.248 65.7113 164.929 65.0508 160.499 65.2719C160.258 65.2854 158.391 65.9855 157.575 65.3413C157.519 65.2985 156.712 64.6403 155.98 65.0653C155.935 65.0919 156.438 65.433 155.549 65.3815C154.659 65.33 153.222 65.5207 152.006 65.1295C151.621 65.0063 150.722 64.3445 149.555 64.8277C149.479 64.8618 147.665 65.9733 147.049 65.1594C146.949 65.0254 147.081 64.1851 145.69 64.5811C145.424 64.6579 145.898 64.8589 145.2 64.9578C144.129 65.1102 142.733 64.8451 141.41 65.1822C141.18 65.242 140.192 65.7857 139.429 65.3273C139.309 65.2555 139.549 64.981 139.14 64.9369C137.183 64.7251 135.136 64.8463 133.157 64.5821C132.458 64.4891 132.833 64.0466 132.107 63.8986C131.374 63.7506 129.902 63.5791 129.132 63.7581C128.362 63.9372 129.171 64.6946 128.015 64.7084C123.007 64.7676 118.072 64.1251 113.092 63.8102C112.356 63.7633 112.966 64.0549 111.863 64.0028C110.343 63.9313 108.397 63.8657 106.414 63.7675C103.092 63.6041 99.5682 63.3406 97.425 62.8463C94.6596 62.209 98.1942 62.1207 96.0801 61.7909C95.0691 61.6329 93.8709 62.3897 93.6282 62.398C91.1719 62.483 89.5167 61.9738 87.3174 61.8993C86.862 61.8836 87.2766 62.263 86.89 62.2459C85.5867 62.1916 84.2051 61.9118 82.9446 61.8187C82.3772 61.7774 82.456 62.0475 81.9419 61.9769C80.703 61.8095 79.6329 61.5894 78.4319 61.2145C78.3242 61.1805 79.1021 60.9371 78.1859 60.8265C76.7118 60.6489 74.8847 60.1976 73.1564 60.236C72.6374 60.2473 72.542 60.8384 71.5107 60.2912C71.2923 60.1759 71.6702 59.5036 70.3254 59.9516C70.1116 60.0288 67.8519 60.5656 66.8797 59.8779C66.6295 59.6986 66.0031 59.0139 65.3846 59.0134C65.3004 59.0155 65.581 59.3825 65.0751 59.3373C63.2784 59.1697 61.4231 58.8322 59.5835 58.6098C59.0907 58.5505 59.7592 59.0061 59.0275 58.9069C57.0132 58.6347 54.5427 58.0695 52.619 57.5591C51.9089 57.3702 52.462 57.2054 52.4157 57.1652C51.6823 56.5135 51.0504 57.0477 50.7645 57.0247C49.0473 56.8769 47.8303 56.3083 46.3069 56.0051C46.2562 55.995 46.2051 55.9851 46.1537 55.9756C45.7121 55.8928 45.949 56.2711 45.8556 56.2776C44.8918 56.3276 45.6929 55.9412 45.1396 55.7443C43.5872 55.1894 41.8106 54.7697 40.1954 54.3887C39.6014 54.2488 40.1733 54.7742 39.64 54.6439C36.4896 53.8802 33.2471 52.9249 30.2728 51.7955C29.7137 51.5821 30.1556 51.4263 30.0558 51.3285C29.3708 50.6488 27.9892 50.8452 27.697 50.8104C26.3573 50.6522 25.9546 50.2559 24.8319 49.9196C21.1877 48.8238 17.0552 47.2425 13.2629 45.333C11.3643 44.3753 9.54147 43.3267 7.92075 42.1949C4.39369 39.8181 1.21388 36.1061 0.401854 31.824C-0.269929 28.6412 -0.0702775 25.4671 0.773135 22.2594C0.901189 21.7915 0.408172 22.162 0.518623 21.7526C1.11617 19.6131 2.051 17.6024 3.24553 15.7627C4.952 12.9964 7.82106 10.5513 10.6282 9.08512C11.0209 8.87473 10.2847 8.85216 10.9177 8.50589C12.2056 7.80178 13.896 7.16169 15.2429 6.83488C15.9025 6.6739 15.1351 7.24501 15.7971 7.07913C17.3293 6.70218 18.9076 6.30509 20.4136 5.89279C21.0532 5.71824 19.9932 5.59383 20.8386 5.39434C23.1194 4.86047 25.362 4.43113 27.6206 4.08191C31.009 3.56118 34.4151 3.22033 37.8661 3.11541C38.2568 3.10406 38.6904 3.79296 39.4947 3.56501C39.535 3.35608 39.5062 3.11851 39.5102 2.89941C47.6928 1.91123 55.8072 1.54689 64.0122 1.07171C64.3573 1.05188 63.7373 0.701137 64.4049 0.66092C68.2887 0.427847 72.0396 0.116531 76.0349 0.31945C76.427 0.339508 76.2564 1.0305 77.4159 0.875933C77.6134 0.847832 79.3601 0.682985 79.8085 0.517466C79.8693 0.492684 79.5355 0.186665 80.1029 0.154986C80.806 0.116852 81.5486 0.0843546 82.256 0.0605272C84.8847 -0.0278568 87.5302 -0.0234962 90.1223 0.1006C90.6659 0.127152 90.0927 0.472461 90.4768 0.494563C93.1613 0.652857 96.1138 0.409534 98.7732 0.931689C100.549 1.30121 99.8243 1.82829 100.681 2.51353C100.802 2.60791 101.866 2.78099 101.863 3.1239C101.865 3.98021 101.223 4.81542 101.285 5.73766C101.289 5.93278 102.699 5.95563 101.806 6.28266C101.739 6.30206 100.747 6.3 100.499 6.42847C100.323 6.51483 100.563 6.89354 100.219 6.98788C99.8783 7.08375 99.5632 6.75419 99.0054 6.86436C98.4532 6.98162 98.6537 7.38214 97.575 7.35208ZM211.258 63.1261C210.313 62.8392 210.223 64.0402 211.222 63.7117C211.27 63.6944 211.307 63.1401 211.258 63.1261ZM206.077 11.0766C207.106 11.9225 208.127 11.4124 207.411 10.7797C206.693 10.1476 205.762 10.8197 206.077 11.0766ZM193.747 8.05523C195.018 8.8259 195.679 7.24703 194.107 7.18116C194.016 7.17695 193.672 8.01045 193.747 8.05523ZM96.4038 2.33074C96.4122 2.34596 97.1804 2.39714 97.1982 2.38344C97.6277 2.02334 96.0915 1.92004 96.4038 2.33074ZM181.443 5.36384C181.821 5.68906 183.138 5.73518 182.662 5.3265C182.277 4.99656 180.966 4.95706 181.443 5.36384ZM162.451 62.2093C162.436 62.1912 161.895 62.1667 161.904 62.2676C161.936 62.5928 162.691 62.5129 162.451 62.2093ZM160.403 1.47165C163.536 1.937 165.217 3.60353 161.852 2.97777C161.24 2.86675 163.238 2.71356 162.471 2.48245C161.067 2.0607 160.001 2.81478 158.593 2.16333C158.338 2.0444 160.224 1.44138 160.409 1.47043C160.407 1.47083 160.405 1.47124 160.403 1.47165ZM210.662 61.713C210.644 61.6981 209.89 61.7137 209.872 61.73C209.478 62.1261 210.999 62.0949 210.662 61.713ZM130.869 60.6462C130.827 60.6112 129.094 60.5151 129.038 60.5438C128.11 61.1307 131.614 61.3271 130.869 60.6462ZM253.083 44.1743C252.846 43.3422 252.878 42.475 253.372 41.8678C253.324 42.6396 253.242 43.4144 253.083 44.1743Z" fill="#FF7700"/>
</svg>
