<svg width="235" height="119" viewBox="0 0 235 119" fill="none" xmlns="http://www.w3.org/2000/svg">
<path d="M59.8803 50.6789C57.8799 51.7511 55.3282 53.1122 53.0016 54.3351C52.2881 54.7095 51.5701 55.0856 50.9276 55.4184C50.0625 55.8688 50.4033 55.4582 49.8017 55.7633C48.6338 56.3564 47.6285 57.0504 46.4709 57.6348C46.0865 57.828 46.3974 57.3026 45.9967 57.5117C43.8099 58.6562 41.8505 59.9249 39.6895 61.1803C33.6376 64.7109 27.7062 68.3686 22.133 72.4165C18.0104 75.4323 14.3189 79.006 11.4693 83.2617C9.25549 86.4861 7.11822 90.8339 6.28646 94.8754C6.18676 95.3428 6.50518 95.1263 6.50444 95.2193C6.49957 96.6785 6.09964 96.1034 5.83963 97.0099C5.66777 97.6246 5.50813 98.2729 5.36429 98.9211C4.86503 101.148 4.65837 103.454 5.59 104.911C5.91606 105.461 6.40057 105.959 6.95884 106.391C8.05381 107.17 7.25091 105.963 8.21675 106.962C8.28914 107.031 7.84222 107.074 8.15329 107.303C8.85813 107.838 10.4674 108.542 11.1384 108.83C12.4223 109.396 12.6516 109.47 13.9244 109.911C15.6714 110.509 17.7738 111.258 19.7384 111.724C20.158 111.823 19.6796 111.403 20.3571 111.536C20.8776 111.638 22.049 111.952 22.8232 112.189C23.0353 112.254 23.2196 112.313 23.3443 112.358C23.9014 112.558 23.6103 112.715 23.7003 112.788C24.4539 113.413 26.6022 113.183 26.86 113.197C31.6606 113.642 35.8527 114.065 40.4739 114.024C40.6116 114.023 40.75 114.021 40.8888 114.018C44.2539 113.973 47.7621 113.552 50.9124 113.083C54.8157 112.506 58.1488 111.956 61.9262 111.063C62.3281 110.967 61.7892 110.753 62.2684 110.638C65.5737 109.842 68.8276 109.023 72.1362 108.218C73.9872 107.767 75.8439 107.324 77.7158 106.892C78.2314 106.773 77.6511 107.234 78.1719 107.131C81.3793 106.498 86.4911 105.623 87.9918 103.863C90.1207 103.29 92.7081 102.569 94.6626 102.24C95.9298 102.026 94.8465 102.686 96.2941 102.103C96.6218 101.971 96.103 101.841 96.6009 101.663C98.702 100.913 101.048 100.275 103.103 99.4724C103.521 99.3087 103.329 99.1094 103.437 99.0285C104.351 98.3593 106.21 98.3893 106.598 98.3092C109.499 97.712 111.505 96.9176 114.114 96.0534C114.717 95.8535 113.899 95.7765 114.475 95.5726C117.474 94.5162 120.596 93.4743 123.581 92.5817C124.245 92.3842 123.739 92.8626 124.061 92.7818C125.478 92.4215 125.61 91.8065 126.962 91.4465C127.248 91.3695 127.173 91.654 127.233 91.661C128.167 91.7713 128.658 90.9638 128.855 90.8785C131.369 89.7792 133.227 89.7553 135.677 88.7457C135.97 88.6241 135.193 88.5874 136.023 88.263C138.45 87.3117 140.946 86.3507 143.447 85.3995C146.632 84.1883 149.829 82.9904 152.92 81.8588C153.776 81.5447 153.264 82.007 153.327 82.0113C154.365 82.0619 154.695 81.278 154.961 81.1426C157.063 80.0875 159.281 79.6827 160.461 78.401C169.689 74.6874 178.51 70.1831 187.651 66.4166C187.767 66.368 187.694 66.7303 187.924 66.6322C190.705 65.4494 189.974 65.2995 191.518 63.9088C191.898 63.5635 193.574 63.4749 193.714 63.4591C194.233 63.4007 193.976 64.0192 194.138 63.9767C195.476 63.6105 194.637 62.4195 196.271 61.5861C196.323 61.5619 196.227 61.9092 196.378 61.8619C196.846 61.7157 197.221 61.4051 197.676 61.2741C198.739 60.9645 199.381 61.4233 200.666 60.2939C200.828 60.1489 200.156 59.5788 201.638 58.8446C202.215 58.5622 204.787 57.1799 205.512 56.8468C206.257 56.5057 205.888 57.004 205.944 56.9866C208.032 56.2536 207.378 56.7713 208.587 56.6997C208.814 56.686 208.967 56.6422 209.068 56.5775C209.518 56.2902 209.001 55.6301 209.265 55.3573C209.584 55.0266 211.125 54.4961 211.52 54.3871C211.915 54.2787 211.566 54.6684 211.901 54.544C214.102 53.7188 212.489 53.5088 213.05 52.9634C214.374 51.6679 216.039 51.7381 217.487 50.9471C217.885 50.7283 217.463 50.7469 217.791 50.5188C219.078 49.6198 220.028 49.3478 221.336 48.108C221.553 47.9052 222.371 46.6341 223.322 46.3674C223.46 46.3287 223.318 46.7416 223.86 46.3579C224.675 45.7929 226.002 44.5877 226.588 43.7075C227.018 43.0647 226.193 43.5366 226.853 42.8389C227.14 42.5179 226.865 43.3007 227.39 42.6746C227.601 42.4178 227.906 41.962 228.192 41.45C228.611 40.7089 228.992 39.8604 229.169 39.4243C229.468 38.6811 229.036 38.9814 229.044 38.914C229.1 38.5186 229.454 37.0563 229.481 36.927C231.039 31.6475 230.923 26.2072 229.435 21.0047C229.131 19.9461 228.652 18.9349 228.02 18.0101C227.732 17.5959 227.669 18.0435 227.623 17.982C226.525 16.6851 227.977 17.2889 227.394 16.1472C227.044 16.6812 226.684 16.0328 225.732 15.232C225.27 14.8512 225.352 15.2469 225.296 15.2274C224.417 14.9168 224.224 14.199 224.15 14.022C223.891 13.3866 223.12 13.3498 222.915 12.9366C222.7 12.5218 223.684 12.7515 222.647 12.0882C222.245 12.0929 222.695 13.0435 221.879 12.6427C218.847 11.0718 213 8.29811 210.332 7.37316C209.671 7.13308 209.122 6.94292 208.64 6.77947C207.23 6.309 206.441 6.11217 205.276 5.76582C202.444 4.97871 203.405 5.63267 201.588 5.48239C199.763 5.36256 200.801 4.49385 200.579 4.22947C200.36 3.96842 200.037 4.14925 199.738 3.97994C199.437 3.81085 200.152 3.76531 199.406 3.60695C198.656 3.44315 196.54 3.57305 196.244 3.77699C195.626 4.20367 196.491 4.8155 194.528 4.42102C194.414 4.39837 194.816 4.1662 194.378 4.09324C190.92 3.52731 187.28 3.28062 183.783 2.94047C183.303 2.89352 183.746 2.60963 183.468 2.57904C180.551 2.26755 181.577 2.8217 179.957 3.33538C180.217 2.82537 179.898 2.43388 178.941 2.21821C178.511 2.11991 177.937 2.05906 177.244 2.04455C175.901 2.01831 176.134 2.35312 175.264 2.57596C175.006 2.64301 174.064 2.41108 173.89 2.56618C173.326 3.07346 174.213 3.63547 171.933 3.4175C171.833 3.40736 172.15 3.12795 171.804 3.11324C169.565 3.0231 169.303 3.55664 166.894 3.68171C165.005 3.77928 161.628 3.59679 159.47 3.67519C159.466 2.8235 157.435 3.14247 156.652 3.78676C155.253 3.86044 153.747 4.013 152.392 4.05162C151.925 4.06532 152.208 3.79346 152.148 3.77219C151.211 3.43753 150.656 4.06349 150.358 4.11477C147.12 4.65002 144.413 4.53519 141.372 5.38497C141.264 5.41579 141.171 6.023 140.283 5.71721C140.225 5.6959 141.208 5.2803 139.75 5.47367C138.735 5.60957 137.077 5.70926 135.5 5.9812C134.807 6.10025 134.137 6.25006 133.54 6.44593C133.065 6.6004 131.935 7.30382 130.878 7.13906C130.737 7.11605 130.846 6.92102 130.639 6.86758C129.969 6.69962 129.754 7.35348 128.933 7.01305C128.108 6.67464 126.52 6.63385 124.591 7.4716C124.528 7.49762 124.169 8.07287 123.538 8.22704C122.532 8.47113 121.083 8.75952 120.044 9.05873C119.545 9.20228 119.945 9.39352 119.86 9.42332C116.565 10.5445 114.132 11.0471 110.576 12.1954C109.922 12.4052 108.222 13.46 106.877 13.6486C105.398 13.8625 106.256 11.9534 103.261 13.5464C102.05 14.1975 101.206 16.5371 98.613 16.6691C97.9171 17.0264 97.2251 17.3656 96.5333 17.6956C93.0666 19.3514 89.6423 20.7507 86.2896 22.8331C86.1088 22.945 85.7538 23.7097 85.3123 23.9373C84.6534 24.2758 84.1852 24.2569 83.7113 24.4944C81.7274 25.4829 80.0533 26.6383 78.173 27.6517C77.4599 28.0372 77.5882 27.6827 76.7368 28.1448C75.8895 28.6056 75.485 29.2061 74.2712 29.7141C73.349 30.0999 72.1667 30.0097 70.9849 30.5954C71.2674 31.1875 70.4765 31.6235 69.1725 32.5685C68.9202 32.7513 69.3216 32.7841 69.2081 32.8808C68.749 33.2786 68.1819 33.3855 67.7552 33.7765C67.6518 33.8709 67.7571 34.0681 67.6791 34.1561C67.0121 34.9165 65.4053 35.2527 65.1235 35.3117C64.0637 35.5309 63.7846 36.0221 63.0296 36.2965C62.901 36.343 62.8227 36.3601 62.7764 36.3588C62.7075 36.3575 62.7091 36.3158 62.7251 36.2672C62.7514 36.1838 62.8201 36.0803 62.6466 36.1273C62.5884 36.1434 62.5036 36.176 62.3824 36.2309C60.6363 37.0218 58.4959 38.2375 56.7794 39.1413C56.0946 39.5036 56.7012 39.518 56.6064 39.576C55.2262 40.3977 53.6427 40.8615 53.122 41.7956C51.4317 40.9332 52.3295 42.3741 50.1364 43.125C49.9641 43.1827 49.4357 42.6344 50.0076 42.2308C50.5781 41.8279 51.6176 41.5592 52.3961 40.974C52.585 40.8346 53.4219 39.6368 53.5623 39.5165C54.6435 38.5898 55.3197 39.4568 55.4143 39.475C56.4545 39.6549 57.5144 38.254 57.8544 38.0114C59.4178 36.9041 60.8917 36.2559 62.2044 35.3391C62.2177 35.3298 62.2309 35.3205 62.2441 35.3111C63.1033 34.7056 62.841 34.0365 63.5719 33.6479C65.9826 32.3626 67.3081 32.7437 69.1255 30.7142C69.519 30.278 68.6495 29.8793 70.6805 29.4231C70.8083 29.3945 72.3705 29.147 72.9351 28.42C73.0064 28.3282 72.8915 28.133 73.0055 28.0464C73.769 27.4717 74.4074 27.3176 75.2672 26.7341C76.1226 26.1532 77.1491 25.4307 78.2176 24.9257C78.8625 24.6201 79.868 24.5479 80.2148 24.4755C81.2008 24.2731 81.8741 23.3516 82.5695 23.3853C83.2699 23.4189 82.4993 24.459 83.9944 23.9195C83.7671 23.3736 83.5993 22.7782 83.4025 22.2122C86.4635 20.5949 89.5788 19.1969 92.6958 17.6467C93.0823 17.4541 92.5465 17.363 92.958 17.1494C93.8855 16.6696 94.7884 16.297 95.7018 15.9149C96.5015 15.5806 97.3086 15.2392 98.1543 14.8129C99.5579 14.1037 101.009 13.1084 102.502 12.3966C103.69 12.6282 105.865 11.5035 107.552 10.9366C108.142 10.7371 108.166 10.9205 108.6 10.8218C110.239 10.4511 109.303 10.1622 109.701 9.91749C111.423 8.88034 112.024 10.0932 114.198 9.33989C114.311 9.29942 115.517 8.15965 115.704 8.05655C116.872 7.38906 115.985 8.22985 116.785 8.03976C118.247 7.69774 119.29 7.57136 120.927 6.90443C121.402 6.70944 122.48 5.95882 123.532 6.05103C123.67 6.06297 123.658 6.31072 123.763 6.29855C125.665 6.06393 125.541 5.3341 126.548 4.83981C127.56 4.34559 129.32 4.49543 129.686 4.5723C130.64 4.7658 129.047 4.87295 129.007 4.92163C128.545 5.47941 129.727 5.14451 130.649 4.99739C130.928 5.68529 132.193 5.39083 131.606 4.84328C131.54 4.78344 130.84 4.99224 130.649 4.99739C131.31 4.13086 132.717 3.76016 134.398 4.14208C134.888 4.25387 134.829 4.48347 135.246 4.51511C135.496 4.535 135.921 4.48166 136.751 4.29365C137.747 4.07024 137.279 3.63563 138.15 3.35966C140.143 2.72953 142.867 2.82857 144.965 2.50304C145.727 2.38458 144.948 2.20016 145.469 2.11017C146.852 1.87169 148.101 1.94371 149.489 1.6983C149.615 1.67578 149.276 1.41954 149.711 1.37266C153.011 1.01577 155.905 0.973507 159.359 0.77533C161.027 0.676622 164.007 0.382149 165.74 0.362865C168.747 0.316027 172.442 0.696572 175.004 0.619817C176.68 0.571053 176.313 0.281024 177.037 0.0956337C177.59 -0.0464075 178.317 -0.0138736 179 0.0869498C180.038 0.239125 180.991 0.544348 181.186 0.614786C181.198 0.618002 179.755 0.639586 180.519 0.812279C180.956 1.13515 181.169 0.615604 181.186 0.614786C181.4 0.687018 184.265 0.866578 184.836 0.843248C185.146 0.828057 184.987 0.546718 185.149 0.544116C189.004 0.490819 192.877 0.696046 196.783 1.28954C196.851 1.30333 196.711 1.59438 196.872 1.62302C199.113 2.03494 200.612 1.88313 202.536 2.00408C204.455 2.1288 205.952 2.5545 206.927 3.35286C207.699 3.51729 208.631 3.83776 209.491 4.20439C210.187 4.50313 210.836 4.81207 211.319 5.04736C212.376 5.56418 212.727 5.06291 212.83 5.08644C215.992 5.84645 217.641 6.84735 220.687 8.41854C222.145 9.15521 225.03 10.7748 226.521 11.9452C227.706 12.8453 228.273 13.5738 229.273 14.5852C229.408 14.725 229.483 14.4041 229.529 14.4427C230.806 15.5097 229.793 15.3067 229.904 15.6342C230.251 16.8635 230.486 17.5193 231.427 19.3239C231.522 19.5151 231.845 19.8148 232.187 20.2001C232.582 20.5977 233.018 21.0835 233.153 21.4969C233.465 22.4864 233.053 22.1808 233.359 23.2201C233.383 23.3092 233.586 23.2482 233.701 23.9108C234.238 26.9891 234.313 30.4683 233.887 33.7615C233.826 34.2117 234.234 33.6765 234.146 34.3348C233.749 37.3112 232.662 40.5117 231.12 43.034C231.061 43.1314 231.002 43.2285 230.941 43.3253C230.52 43.981 230.565 43.4416 230.422 43.5527C229.569 44.2226 229.155 45.733 228.991 45.9333C225.289 50.51 221.564 51.863 217.334 54.8065C217.121 54.9549 215.563 56.6145 214.477 56.5978C214.394 56.6037 213.317 56.5712 212.766 57.3212C212.733 57.3675 213.38 57.3366 212.485 57.8046C211.921 58.1 211.211 58.5701 210.396 58.9946C209.91 59.2467 209.378 59.484 208.844 59.6353C208.416 59.7537 207.22 59.7647 206.269 60.7799C206.202 60.8525 204.872 62.7057 203.911 62.4217C203.754 62.374 203.516 61.6668 202.298 62.7317C202.066 62.9355 202.626 62.8291 201.971 63.2867C200.956 63.995 199.446 64.5523 198.262 65.5264C198.046 65.702 197.304 66.643 196.326 66.7111C196.174 66.7209 196.296 66.383 195.868 66.5685C193.812 67.4585 191.8 68.6438 189.686 69.4909C188.94 69.79 189.134 69.2514 188.332 69.5244C187.538 69.7934 185.967 70.441 185.266 70.9799C184.556 71.5236 185.697 71.6806 184.529 72.2969C179.478 74.9602 174.189 76.9961 168.96 79.2687C168.187 79.6039 168.919 79.5274 167.783 80.0365C163.593 81.9261 156.379 85.2298 152.498 86.285C149.398 87.1329 153.003 85.3441 150.687 86.118C149.568 86.492 148.665 87.6501 148.409 87.7777C147.145 88.4122 146.034 88.8251 144.941 89.2102C143.877 89.5847 142.837 89.9305 141.702 90.42C141.228 90.6246 141.808 90.7224 141.403 90.8934C140.02 91.4798 138.497 91.914 137.164 92.4397C136.565 92.6763 136.756 92.8489 136.195 93.0392C134.855 93.496 133.644 93.84 132.275 94.1114C132.15 94.1362 132.85 93.5782 131.862 93.9274C130.264 94.4927 128.216 95.0045 126.451 95.8609C125.927 96.1156 126.08 96.6163 124.788 96.6881C124.517 96.7032 124.623 96.0023 123.435 96.9912C123.238 97.1562 121.174 98.6461 119.892 98.5852C119.553 98.5703 118.626 98.3445 117.995 98.6435C117.911 98.6859 118.357 98.8307 117.822 99.0411C115.924 99.7812 113.901 100.425 111.944 101.162C111.422 101.359 112.301 101.376 111.521 101.66C109.372 102.444 106.64 103.247 104.478 103.837C103.685 104.052 104.154 103.651 104.089 103.645C103.051 103.527 102.669 104.249 102.376 104.376C100.544 105.161 99.0117 105.353 97.2811 105.958C96.8054 106.123 97.2268 106.281 97.1381 106.333C96.2097 106.866 96.8095 106.169 96.1594 106.31C94.3486 106.701 92.3708 107.317 90.588 107.88C89.9363 108.087 90.767 108.173 90.1742 108.356C86.6727 109.446 83.0272 110.457 79.5269 111.243C78.8713 111.389 79.2132 111.041 79.0637 111.024C78.0368 110.903 76.8098 111.789 76.507 111.924C75.1631 112.522 74.5393 112.479 73.3518 112.823C73.3257 112.83 73.2993 112.838 73.2727 112.846C67.1399 114.675 59.4043 116.43 53.3074 117.35C48.8886 118.032 44.8796 118.301 40.9518 118.282C37.8613 118.271 34.7627 118.211 31.3478 117.998C30.8572 117.966 31.3277 118.327 30.904 118.302C27.8169 118.105 24.7261 117.684 21.6108 116.874C19.3852 116.289 17.1457 115.695 14.8531 115.047C14.4217 114.924 14.95 115.408 14.256 115.218C12.8198 114.828 11.0168 114.206 9.58495 113.517C8.89145 113.182 9.94849 113.331 9.24662 112.995C7.62634 112.198 5.84061 111.326 4.10652 109.992C3.36898 109.396 4.26252 110.584 3.31041 109.754C2.60026 109.105 1.90658 108.319 1.34859 107.36C-0.613167 103.883 0.0333738 100.55 0.418041 98.0772C1.00918 94.7624 1.92349 91.3419 3.409 88.1168C3.61226 87.6776 4.3534 87.5363 4.6412 86.5767C4.50909 86.4356 4.31627 86.354 4.15611 86.246C7.32068 78.8788 12.8823 72.9111 19.087 68.3648C20.6666 67.201 22.2809 66.071 23.8895 64.9694C24.2184 64.7445 23.4572 64.8558 24.0953 64.4181C27.7874 61.894 31.3726 59.4796 35.4065 57.3706C35.8061 57.1621 35.9251 57.7899 37.0043 57.0185C37.1942 56.8809 38.8556 55.7712 39.2286 55.3947C39.2785 55.3415 38.8216 55.2921 39.369 54.9509C42.544 52.979 45.953 51.0445 49.284 49.3438C49.8273 49.0671 49.4119 49.645 49.7976 49.4518C49.9124 49.3943 50.0262 49.3367 50.1389 49.279C52.7642 47.936 55.4234 46.233 58.1337 45.2108C60.0422 44.5164 59.5798 45.3029 60.7548 45.35C60.9174 45.3525 62.0824 44.9235 62.2384 45.1869C62.6311 45.832 62.3711 46.7858 62.8561 47.4493C62.9436 47.5925 64.3752 46.9117 63.6233 47.6017C63.5598 47.649 62.5838 48.1404 62.4012 48.369C62.2677 48.5255 62.678 48.6839 62.3863 48.9333C62.0954 49.1842 61.6267 49.1091 61.1136 49.5029C60.6023 49.9034 61.0057 50.0806 59.8803 50.6789ZM216.024 7.48379C216.914 8.16239 217.473 7.26287 216.285 7.03892C216.226 7.02935 215.977 7.44949 216.024 7.48379ZM89.931 19.9328C91.3846 19.7145 91.94 18.6842 90.8968 18.8046C89.8521 18.9283 89.4875 20.0011 89.931 19.9328ZM77.34 27.0645C78.9397 26.5881 78.4427 25.1662 77.0622 26.2799C76.9819 26.3443 77.2467 27.0925 77.34 27.0645ZM56.4408 47.5688C56.4616 47.5726 57.2399 47.1858 57.2482 47.1672C57.5077 46.6593 55.9532 47.4309 56.4408 47.5688ZM65.0712 34.4628C65.6097 34.3881 66.7656 33.4619 66.0949 33.557C65.5528 33.6353 64.3977 34.5583 65.0712 34.4628ZM217.794 51.3577C217.772 51.3537 217.246 51.6614 217.301 51.7311C217.487 51.9506 218.17 51.4339 217.794 51.3577ZM43.5277 45.6953C46.7966 44.2109 49.2949 44.3579 45.6987 45.9315C45.0478 46.2144 46.9103 44.9195 46.0478 45.2091C44.4711 45.7392 43.8078 46.9023 42.1073 47.2475C41.7994 47.3091 43.3403 45.7778 43.5327 45.691C43.531 45.6924 43.5294 45.6939 43.5277 45.6953ZM216.113 8.88242C216.126 8.90129 216.91 9.2514 216.932 9.24769C217.492 9.12682 215.913 8.41909 216.113 8.88242ZM185.724 67.6742C185.667 67.6698 183.873 68.5054 183.826 68.5571C183.131 69.4965 186.764 67.806 185.724 67.6742ZM159.435 3.65457C158.526 4.0422 157.424 4.15357 156.656 3.78689C157.579 3.74459 158.506 3.68825 159.435 3.65457Z" fill="#FF7700"/>
</svg>
